<svg viewBox="0 0 820 680" xmlns="http://www.w3.org/2000/svg" font-family="system-ui,-apple-system,sans-serif">

  <!-- Title -->
  <text x="410" y="30" text-anchor="middle" font-size="16" font-weight="700" fill="#111827" letter-spacing="-0.3">AWS Bedrock DBA Agent — Architecture</text>
  <text x="410" y="48" text-anchor="middle" font-size="10" fill="#6b7280" letter-spacing="1.5">MULTI-AGENT · MYSQL + POSTGRESQL · us-east-1</text>

  <!-- LAYER 1: UI -->
  <rect x="40" y="64" width="740" height="56" rx="8" fill="#EEF2FF" stroke="#6366F1" stroke-width="1.5"/>
  <text x="56" y="80" font-size="9" font-weight="700" fill="#4338CA" letter-spacing="1.2">01 · USER INTERFACE</text>
  <rect x="200" y="76" width="420" height="34" rx="6" fill="#C7D2FE" stroke="#6366F1" stroke-width="1"/>
  <text x="410" y="91" text-anchor="middle" font-size="12" font-weight="700" fill="#1E1B4B">Alex — DBA Assistant</text>
  <text x="410" y="105" text-anchor="middle" font-size="10" fill="#4338CA">Single HTML file · Session tracking · Quick actions · No build step</text>

  <!-- Arrow 1→2 -->
  <line x1="410" y1="121" x2="410" y2="136" stroke="#0D9488" stroke-width="1.5" stroke-dasharray="4 2"/>
  <polygon points="405,136 415,136 410,143" fill="#0D9488"/>
  <text x="432" y="133" font-size="9" fill="#6b7280">HTTPS · Function URL</text>

  <!-- LAYER 2: FRONT-DOOR LAMBDA -->
  <rect x="40" y="145" width="740" height="56" rx="8" fill="#F0FDFA" stroke="#0D9488" stroke-width="1.5"/>
  <text x="56" y="161" font-size="9" font-weight="700" fill="#0F766E" letter-spacing="1.2">02 · FRONT-DOOR LAMBDA</text>
  <rect x="200" y="157" width="420" height="34" rx="6" fill="#CCFBF1" stroke="#0D9488" stroke-width="1"/>
  <text x="410" y="172" text-anchor="middle" font-size="12" font-weight="700" fill="#0F4C3A">dba-agent-frontdoor</text>
  <text x="410" y="186" text-anchor="middle" font-size="10" fill="#0F766E">Python 3.12 · Public Function URL · CORS · 5 min timeout · 256 MB</text>

  <!-- Arrow 2→3 -->
  <line x1="410" y1="202" x2="410" y2="217" stroke="#7C3AED" stroke-width="1.5" stroke-dasharray="4 2"/>
  <polygon points="405,217 415,217 410,224" fill="#7C3AED"/>
  <text x="432" y="214" font-size="9" fill="#6b7280">bedrock:InvokeAgent</text>

  <!-- LAYER 3: AGENTIC -->
  <rect x="40" y="226" width="740" height="94" rx="8" fill="#FAF5FF" stroke="#7C3AED" stroke-width="1.5"/>
  <text x="56" y="242" font-size="9" font-weight="700" fill="#6D28D9" letter-spacing="1.2">03 · AGENTIC LAYER — AWS BEDROCK</text>

  <!-- Supervisor -->
  <rect x="56" y="248" width="198" height="60" rx="6" fill="#EDE9FE" stroke="#7C3AED" stroke-width="1.5"/>
  <text x="155" y="266" text-anchor="middle" font-size="11" font-weight="700" fill="#3B0764">Supervisor — Alex</text>
  <text x="155" y="280" text-anchor="middle" font-size="9" fill="#6D28D9">Amazon Nova Pro</text>
  <text x="155" y="293" text-anchor="middle" font-size="9" fill="#6D28D9">Supervisor mode · 2 collaborators</text>
  <text x="155" y="304" text-anchor="middle" font-size="9" fill="#6D28D9">dba_agent_supervisor</text>

  <!-- Route arrows -->
  <line x1="255" y1="270" x2="285" y2="258" stroke="#7C3AED" stroke-width="1"/>
  <line x1="255" y1="280" x2="285" y2="294" stroke="#7C3AED" stroke-width="1"/>
  <text x="259" y="276" font-size="8" fill="#9CA3AF">routes</text>

  <!-- MySQL Specialist -->
  <rect x="286" y="248" width="234" height="26" rx="5" fill="#EDE9FE" stroke="#7C3AED" stroke-width="1"/>
  <text x="403" y="260" text-anchor="middle" font-size="10" font-weight="700" fill="#3B0764">MySQL Specialist</text>
  <text x="403" y="271" text-anchor="middle" font-size="9" fill="#6D28D9">Nova Pro · mysql_read_actions · mysql_write_actions</text>

  <!-- PG Specialist -->
  <rect x="286" y="282" width="234" height="26" rx="5" fill="#EDE9FE" stroke="#7C3AED" stroke-width="1"/>
  <text x="403" y="294" text-anchor="middle" font-size="10" font-weight="700" fill="#3B0764">PostgreSQL Specialist</text>
  <text x="403" y="305" text-anchor="middle" font-size="9" fill="#6D28D9">Nova Pro · postgres_read_actions · postgres_write_actions</text>

  <!-- VPC boundary -->
  <rect x="40" y="336" width="740" height="304" rx="8" fill="none" stroke="#D1D5DB" stroke-width="1" stroke-dasharray="6 3"/>
  <rect x="52" y="329" width="168" height="14" rx="3" fill="white"/>
  <text x="136" y="340" text-anchor="middle" font-size="9" fill="#9CA3AF" letter-spacing="0.5">AWS VPC — Private Subnets</text>

  <!-- Arrows 3→4 -->
  <line x1="350" y1="310" x2="240" y2="368" stroke="#0D9488" stroke-width="1.5" stroke-dasharray="4 2"/>
  <polygon points="236,367 244,370 239,375" fill="#0D9488"/>
  <line x1="460" y1="310" x2="550" y2="368" stroke="#0D9488" stroke-width="1.5" stroke-dasharray="4 2"/>
  <polygon points="547,367 555,370 550,375" fill="#0D9488"/>
  <text x="380" y="348" font-size="9" fill="#6b7280">invoke Lambda</text>

  <!-- LAYER 4: BACKEND LAMBDAS -->
  <rect x="56" y="350" width="330" height="84" rx="8" fill="#F0FDFA" stroke="#0D9488" stroke-width="1.5"/>
  <text x="72" y="366" font-size="9" font-weight="700" fill="#0F766E" letter-spacing="1.2">04 · BACKEND LAMBDA</text>

  <rect x="68" y="372" width="142" height="50" rx="6" fill="#CCFBF1" stroke="#0D9488" stroke-width="1"/>
  <text x="139" y="388" text-anchor="middle" font-size="11" font-weight="700" fill="#0F4C3A">MySQL Lambda</text>
  <text x="139" y="401" text-anchor="middle" font-size="9" fill="#0F766E">Python 3.14 · pymysql</text>
  <text x="139" y="414" text-anchor="middle" font-size="9" fill="#0F766E">5 functions</text>

  <rect x="222" y="372" width="148" height="50" rx="6" fill="#CCFBF1" stroke="#0D9488" stroke-width="1"/>
  <text x="296" y="388" text-anchor="middle" font-size="11" font-weight="700" fill="#0F4C3A">PostgreSQL Lambda</text>
  <text x="296" y="401" text-anchor="middle" font-size="9" fill="#0F766E">Python 3.12 · psycopg2</text>
  <text x="296" y="414" text-anchor="middle" font-size="9" fill="#0F766E">5 functions</text>

  <!-- Secrets Manager -->
  <rect x="434" y="350" width="330" height="84" rx="8" fill="#FFFBEB" stroke="#D97706" stroke-width="1.5"/>
  <text x="450" y="366" font-size="9" font-weight="700" fill="#92400E" letter-spacing="1.2">SECRETS MANAGER</text>
  <text x="450" y="384" font-size="10" fill="#78350F">● dba-agent/mysql/reader</text>
  <text x="450" y="398" font-size="10" fill="#78350F">● dba-agent/mysql/admin</text>
  <text x="450" y="412" font-size="10" fill="#78350F">● dba-agent/postgres/reader</text>
  <text x="450" y="426" font-size="10" fill="#78350F">● dba-agent/postgres/admin</text>
  <text x="730" y="418" text-anchor="end" font-size="8" fill="#9CA3AF">via VPC Endpoint</text>

  <!-- Lambda → Secrets arrow -->
  <line x1="387" y1="400" x2="433" y2="400" stroke="#D97706" stroke-width="1" stroke-dasharray="3 2"/>
  <polygon points="430,396 438,400 430,404" fill="#D97706"/>
  <text x="410" y="393" text-anchor="middle" font-size="8" fill="#9CA3AF">fetch creds</text>

  <!-- Arrows 4→5 -->
  <line x1="139" y1="422" x2="139" y2="462" stroke="#EA580C" stroke-width="1.5" stroke-dasharray="4 2"/>
  <polygon points="134,462 144,462 139,469" fill="#EA580C"/>
  <line x1="296" y1="422" x2="550" y2="462" stroke="#EA580C" stroke-width="1.5" stroke-dasharray="4 2"/>
  <polygon points="546,462 554,465 549,470" fill="#EA580C"/>
  <text x="300" y="450" font-size="9" fill="#6b7280">connection pool · TLS</text>

  <!-- LAYER 5: RDS PROXY -->
  <rect x="56" y="472" width="330" height="58" rx="8" fill="#FFF7ED" stroke="#EA580C" stroke-width="1.5"/>
  <text x="72" y="488" font-size="9" font-weight="700" fill="#C2410C" letter-spacing="1.2">05 · RDS PROXY</text>

  <rect x="68" y="494" width="142" height="26" rx="6" fill="#FED7AA" stroke="#EA580C" stroke-width="1"/>
  <text x="139" y="506" text-anchor="middle" font-size="10" font-weight="700" fill="#7C2D12">MySQL Proxy</text>
  <text x="139" y="517" text-anchor="middle" font-size="9" fill="#C2410C">port 3306 · TLS</text>

  <rect x="222" y="494" width="148" height="26" rx="6" fill="#FED7AA" stroke="#EA580C" stroke-width="1"/>
  <text x="296" y="506" text-anchor="middle" font-size="10" font-weight="700" fill="#7C2D12">PostgreSQL Proxy</text>
  <text x="296" y="517" text-anchor="middle" font-size="9" fill="#C2410C">port 5432</text>

  <!-- Arrows 5→6 -->
  <line x1="139" y1="530" x2="139" y2="562" stroke="#16A34A" stroke-width="1.5" stroke-dasharray="4 2"/>
  <polygon points="134,562 144,562 139,569" fill="#16A34A"/>
  <line x1="296" y1="530" x2="550" y2="562" stroke="#16A34A" stroke-width="1.5" stroke-dasharray="4 2"/>
  <polygon points="546,562 554,565 549,570" fill="#16A34A"/>
  <text x="300" y="552" font-size="9" fill="#6b7280">SQL queries</text>

  <!-- LAYER 6: RDS DATABASES -->
  <rect x="56" y="572" width="330" height="52" rx="8" fill="#F0FDF4" stroke="#16A34A" stroke-width="1.5"/>
  <text x="72" y="588" font-size="9" font-weight="700" fill="#15803D" letter-spacing="1.2">06 · RDS DATABASES — PRIVATE SUBNET · NO INTERNET ROUTE</text>

  <rect x="68" y="594" width="142" height="22" rx="5" fill="#BBF7D0" stroke="#16A34A" stroke-width="1"/>
  <text x="139" y="609" text-anchor="middle" font-size="10" font-weight="700" fill="#14532D">MySQL · db.t4g.micro</text>

  <rect x="222" y="594" width="148" height="22" rx="5" fill="#BBF7D0" stroke="#16A34A" stroke-width="1"/>
  <text x="296" y="609" text-anchor="middle" font-size="10" font-weight="700" fill="#14532D">PostgreSQL · db.t4g.micro</text>

  <!-- Legend -->
  <rect x="434" y="472" width="330" height="152" rx="8" fill="#F9FAFB" stroke="#E5E7EB" stroke-width="1"/>
  <text x="450" y="490" font-size="9" font-weight="700" fill="#374151" letter-spacing="1.2">LEGEND</text>
  <rect x="450" y="500" width="12" height="10" rx="2" fill="#EEF2FF" stroke="#6366F1" stroke-width="1"/>
  <text x="468" y="510" font-size="10" fill="#374151">UI Layer</text>
  <rect x="450" y="518" width="12" height="10" rx="2" fill="#F0FDFA" stroke="#0D9488" stroke-width="1"/>
  <text x="468" y="528" font-size="10" fill="#374151">Lambda Functions</text>
  <rect x="450" y="536" width="12" height="10" rx="2" fill="#FAF5FF" stroke="#7C3AED" stroke-width="1"/>
  <text x="468" y="546" font-size="10" fill="#374151">Bedrock Agents</text>
  <rect x="450" y="554" width="12" height="10" rx="2" fill="#FFF7ED" stroke="#EA580C" stroke-width="1"/>
  <text x="468" y="564" font-size="10" fill="#374151">RDS Proxy</text>
  <rect x="450" y="572" width="12" height="10" rx="2" fill="#F0FDF4" stroke="#16A34A" stroke-width="1"/>
  <text x="468" y="582" font-size="10" fill="#374151">RDS Databases</text>
  <rect x="450" y="590" width="12" height="10" rx="2" fill="#FFFBEB" stroke="#D97706" stroke-width="1"/>
  <text x="468" y="600" font-size="10" fill="#374151">Secrets Manager</text>

</svg>
